<svg width="1024" height="1024" viewBox="0 0 1024 1024" fill="none" xmlns="http://www.w3.org/2000/svg">
  <defs>
    <linearGradient id="eyeStroke" x1="172" y1="512" x2="852" y2="512" gradientUnits="userSpaceOnUse">
      <stop stop-color="#45A3FF"/>
      <stop offset="1" stop-color="#0D7EF0"/>
    </linearGradient>
    <linearGradient id="iris" x1="450" y1="398" x2="596" y2="606" gradientUnits="userSpaceOnUse">
      <stop stop-color="#58B4FF"/>
      <stop offset="1" stop-color="#1788F6"/>
    </linearGradient>
  </defs>

  <path d="M192 512C270 408 387 340 512 340C637 340 754 408 832 512C754 616 637 684 512 684C387 684 270 616 192 512Z" stroke="url(#eyeStroke)" stroke-width="52" stroke-linecap="round" stroke-linejoin="round"/>

  <circle cx="522" cy="512" r="92" fill="url(#iris)"/>

  <path d="M472 610C516 610 552 579 552 542C552 506 516 476 472 476C428 476 392 506 392 542C392 560 401 576 417 588L407 626L446 612C454 614 463 615 472 615Z" fill="url(#iris)"/>
</svg>
